<svg width="123" height="22" viewBox="0 0 123 22" fill="none" xmlns="http://www.w3.org/2000/svg">
<path d="M51.2555 9.69045C50.8686 9.24108 49.844 8.3208 47.9358 8.3208C45.1879 8.3208 43.0352 10.474 43.0352 13.2234C43.0352 15.9729 45.1879 18.1261 47.9358 18.1261C49.844 18.1261 50.8686 17.2058 51.2555 16.7564V17.8881H53.1184V8.55878H51.2555V9.69045ZM51.1002 13.2247C51.1002 15.0602 49.7819 16.3919 47.9642 16.3919C46.1466 16.3919 44.8283 15.0602 44.8283 13.2247C44.8283 11.3892 46.1466 10.0576 47.9642 10.0576C49.7819 10.0576 51.1002 11.3892 51.1002 13.2247Z" fill="#333333"/>
<path d="M61.2271 14.2478C61.2271 14.8896 60.9476 15.4782 60.4625 15.8656C60.0239 16.215 59.5323 16.3922 59.0006 16.3922C57.637 16.3922 56.8543 15.6124 56.8543 14.2529V8.55908H54.959V14.5301C54.959 17.0023 56.8336 18.1277 58.5749 18.1277C60.1054 18.1277 60.9903 17.2011 61.3474 16.7175V17.8897H63.1211V8.55908H61.2258V14.2478H61.2271Z" fill="#333333"/>
<path d="M70.6902 16.0375C70.6902 16.0375 70.1636 16.3957 69.6746 16.3957C68.8414 16.3957 68.4184 15.9552 68.4184 15.0881V10.2588H71.3293V8.5626H68.4184V5.77393H66.5231V8.5626H64.7041V10.2588H66.5231V15.1666C66.5231 17.2033 68.0303 18.1312 69.4314 18.1312C70.0795 18.1312 70.6927 17.9565 71.4198 17.5653L71.4987 17.5223L70.7859 15.9704L70.6889 16.0375H70.6902Z" fill="#333333"/>
<path d="M77.3784 8.3208C74.6254 8.3208 72.4688 10.474 72.4688 13.2234C72.4688 15.9729 74.6254 18.1261 77.3784 18.1261C80.1315 18.1261 82.2881 15.9729 82.2881 13.2234C82.2881 10.474 80.1315 8.3208 77.3784 8.3208ZM80.3941 13.2234C80.3941 15.0589 79.1262 16.3906 77.3784 16.3906C75.6306 16.3906 74.3628 15.0589 74.3628 13.2234C74.3628 11.388 75.6306 10.0563 77.3784 10.0563C79.1262 10.0563 80.3941 11.388 80.3941 13.2234Z" fill="#333333"/>
<path d="M88.0562 4.12285C86.6162 4.12285 85.0871 5.17604 85.0871 7.12672V8.5584H83.1465V10.2546H85.0871V17.8903H86.9824V10.2546H89.4081V8.5584H86.9824V7.22545C86.9824 6.36847 87.4753 5.85707 88.2994 5.85707C88.7897 5.85707 89.3331 6.19505 89.3382 6.19758L89.434 6.25834L90.1442 4.7102L90.0653 4.66716C89.1662 4.18361 88.5193 4.12158 88.0575 4.12158L88.0562 4.12285Z" fill="#333333"/>
<path d="M93.2312 4.36377H91.3359V17.8932H93.2312V4.36377Z" fill="#333333"/>
<path d="M100.108 8.32207C97.3441 8.32207 95.3389 10.3841 95.3389 13.2247C95.3389 16.0653 97.4761 18.1274 100.309 18.1274C102.796 18.1274 104.254 16.3083 104.269 16.2893L104.321 16.2235L103.108 14.9918L103.039 15.0868C103.03 15.0994 102.074 16.3919 100.309 16.3919C98.7336 16.3919 97.3648 15.2893 97.2031 13.9133H104.726L104.734 13.826C104.755 13.6045 104.755 13.4627 104.755 13.2829C104.755 10.3614 102.844 8.3208 100.108 8.3208V8.32207ZM97.2497 12.3374C97.4024 11.4905 98.1605 10.0576 100.108 10.0576C101.875 10.0576 102.78 11.3576 102.892 12.3374H97.2497Z" fill="#333333"/>
<path d="M110.621 8.32207C107.858 8.32207 105.853 10.3841 105.853 13.2247C105.853 16.0653 107.99 18.1274 110.823 18.1274C113.31 18.1274 114.768 16.3083 114.783 16.2893L114.835 16.2235L113.621 14.9918L113.553 15.0868C113.544 15.0994 112.592 16.3919 110.823 16.3919C109.247 16.3919 107.879 15.2893 107.717 13.9133H115.24L115.248 13.826C115.268 13.6045 115.268 13.4627 115.268 13.2829C115.268 10.3614 113.357 8.3208 110.621 8.3208V8.32207ZM107.763 12.3374C107.916 11.4905 108.674 10.0576 110.621 10.0576C112.388 10.0576 113.294 11.3576 113.405 12.3374H107.763Z" fill="#333333"/>
<path d="M122.288 15.9704L122.191 16.0375C122.191 16.0375 121.663 16.3957 121.176 16.3957C120.342 16.3957 119.919 15.9552 119.919 15.0881V10.2588H122.83V8.5626H119.919V5.77393H118.024V8.5626H116.205V10.2588H118.024V15.1666C118.024 17.2033 119.531 18.1312 120.932 18.1312C121.581 18.1312 122.194 17.9565 122.921 17.5653L123 17.5223L122.287 15.9704H122.288Z" fill="#333333"/>
<path d="M10.6548 21.2667C9.88242 21.5085 9.07255 21.6313 8.24975 21.6313C6.0737 21.6313 3.94036 20.7667 2.39953 19.2578C-0.799844 16.1273 -0.799844 11.0336 2.39953 7.90183C3.94941 6.38534 6.01031 5.54988 8.20188 5.54988C8.22387 5.54988 8.24069 5.54988 8.2588 5.55115C8.32737 5.55115 8.39076 5.55368 8.45027 5.55747C9.91218 5.59545 11.3482 6.01951 12.5876 6.78282L12.9033 6.97776L11.6095 9.17781L11.2667 8.96135C10.3559 8.38665 9.30154 8.08158 8.2174 8.08158H8.20058C6.69081 8.08665 5.28712 8.65755 4.23015 9.69175C2.03988 11.8348 2.03988 15.3235 4.23015 17.4666C5.28971 18.5033 6.7555 19.0983 8.25104 19.0983C8.80734 19.0983 9.3507 19.016 9.86819 18.854C12.2047 18.1223 13.4583 15.8678 14.5644 13.8792C14.5644 13.8792 16.8077 9.9753 17.9682 8.01829C18.7884 6.63471 20.6617 4.31314 23.9956 4.31314C25.869 4.31314 27.6297 5.02708 28.9545 6.32331C30.278 7.61702 31.0063 9.34111 31.0063 11.1753C31.0063 13.0095 30.278 14.7336 28.9545 16.0273C27.6297 17.3236 25.869 18.0375 23.9956 18.0375H16.5839L16.9461 17.459C17.3485 16.8185 17.7069 16.1742 17.9682 15.7033L18.0782 15.5045H23.9956C25.1781 15.5045 26.2894 15.0539 27.1252 14.2362C27.9596 13.4197 28.4189 12.3323 28.4189 11.1741C28.4189 10.0158 27.9596 8.92844 27.1252 8.11196C26.2894 7.29422 25.1781 6.84358 23.9956 6.84358C21.9593 6.84358 20.7471 8.374 20.2063 9.28668C19.0446 11.2462 16.9733 14.8438 16.8427 15.0792C15.6356 17.2502 13.9809 20.2224 10.6574 21.2642L10.6548 21.2667ZM31.5148 3.81819C29.5056 1.85232 26.8354 0.77002 23.9944 0.77002C20.2335 0.77002 16.8931 2.76374 14.8322 6.24103C13.6614 8.21703 11.3806 12.1867 11.3806 12.1867C10.5991 13.5906 9.71424 15.1805 8.76206 15.4792C8.5887 15.5337 8.40758 15.559 8.21611 15.5539C7.10998 15.5539 6.20825 14.6729 6.20825 13.5906C6.20825 12.5083 7.10868 11.6272 8.21611 11.6272C8.65856 11.6272 9.07902 11.7677 9.43221 12.0323L9.78539 12.2969L10.0053 11.9196C10.2718 11.4627 10.581 10.9336 10.9096 10.374L11.0882 10.069L10.7906 9.8715C10.0286 9.36642 9.13853 9.09933 8.21611 9.09933C5.683 9.09933 3.62339 11.1158 3.62339 13.5931C3.62339 16.0704 5.68429 18.0869 8.21611 18.0869L8.60423 18.0831V18.0704C8.93283 18.0464 9.24979 17.9869 9.54994 17.8919C11.4905 17.2843 12.5902 15.3083 13.6536 13.3956C13.6536 13.3956 13.9447 12.8716 14.0676 12.6602C15.2747 10.5538 15.9034 9.48035 17.0703 7.51195C18.6565 4.8372 21.1792 3.30299 23.9944 3.30299C26.1445 3.30299 28.1653 4.122 29.6854 5.60937C31.203 7.09422 32.0387 9.07275 32.0387 11.1779C32.0387 13.283 31.203 15.2602 29.6854 16.7463C28.1653 18.2337 26.1445 19.0527 23.9944 19.0527H15.8245L15.7081 19.1945C15.1595 19.8641 14.5942 20.4249 13.9835 20.9097L13.131 21.5844H23.9944C26.8354 21.5844 29.5056 20.5021 31.5148 18.5363C33.5239 16.5704 34.6262 13.9602 34.6262 11.1779C34.6262 8.39552 33.5213 5.7828 31.5148 3.81946V3.81819Z" fill="url(#paint0_linear_2_6519)"/>
<defs>
<linearGradient id="paint0_linear_2_6519" x1="2.8319" y1="22.5139" x2="12.7492" y2="-4.0872" gradientUnits="userSpaceOnUse">
<stop stop-color="#1EF5B9"/>
<stop offset="0.85" stop-color="#55C3FF"/>
</linearGradient>
</defs>
</svg>
