<?xml version="1.0" encoding="utf-8"?>
<svg xmlns="http://www.w3.org/2000/svg" color="currentColor" viewBox="0 0 174 35">
  <g fill="none" fill-rule="evenodd" stroke="currentColor">
    <g stroke-width="2">
      <path d="M1.515 1.818h29.072v29H1.515z"/>
      <path d="M1.515 1.818h8.023v29H1.515z"/>
      <path d="M30.586 16.818H9.533v14h21.053zm0 0h-7.021v-15h7.021z"/>
    </g>
    <path fill="currentColor" fill-rule="nonzero" stroke-width=".75" d="M44.34 26v-9.492h11.844V26h1.627V5.56h-1.627v9.408H44.34V5.56h-1.628V26zm24.248-14.28c4.098 0 7.185 2.912 7.185 7.112v.7H62.835c.224 3.08 2.526 5.32 5.837 5.32 2.61 0 4.378-1.344 5.305-3.5l1.403.672c-1.263 2.688-3.424 4.256-6.68 4.256-4.546 0-7.38-3.108-7.38-7.196 0-4.144 3.086-7.364 7.268-7.364zm0 1.428c-2.947 0-5.248 2.1-5.697 4.928h11.226c-.309-2.94-2.414-4.928-5.529-4.928zm17.204-1.428c2.133 0 4.518 1.148 5.669 3.192V12h1.6v14h-1.6v-2.912c-1.15 2.044-3.536 3.192-5.67 3.192-4.097 0-7.212-3.276-7.212-7.28 0-4.004 3.087-7.28 7.213-7.28zm.084 1.456c-3.171 0-5.697 2.604-5.697 5.824 0 3.22 2.526 5.824 5.697 5.824 3.256 0 5.753-2.604 5.753-5.824 0-3.192-2.497-5.824-5.753-5.824zM98.702 26V5.56h-1.628V26zm10.524 0v-1.484c-2.947 0-3.564-.532-3.564-3.64v-7.448h3.564V12h-3.564V7.772l-1.628.952V12h-2.414v1.428h2.414v7.476c0 4.032 1.066 5.096 4.967 5.096h.225zm4.911 0v-7.812c0-2.856 2.161-5.012 4.968-5.012 3.087 0 4.799 1.988 4.799 4.984V26h1.628v-7.84c0-4.004-2.47-6.44-6.203-6.44-2.357 0-4.238 1.176-5.22 2.856V5.56h-1.571V26h1.6zm18.27 6.468L141.472 12h-1.74l-4.939 11.396L129.489 12h-1.768l6.202 13.216-3.227 7.252zM144.904 26v-3.836h-1.627V26zm6.475-16.38V5.56h-1.599v4.06zm0 16.38V12h-1.599v14zm10.665-14.28c4.041 0 7.297 3.192 7.297 7.28s-3.256 7.28-7.297 7.28-7.269-3.192-7.269-7.28 3.228-7.28 7.269-7.28zm0 1.456c-3.171 0-5.67 2.604-5.67 5.824 0 3.22 2.499 5.824 5.67 5.824s5.669-2.604 5.669-5.824c0-3.22-2.498-5.824-5.67-5.824z"/>
  </g>
</svg>